<svg width="131" height="50" viewBox="0 0 131 50" fill="none" xmlns="http://www.w3.org/2000/svg">
<path d="M40.728 42C39.5973 42 38.584 41.7333 37.688 41.2C36.8133 40.6667 36.12 39.9413 35.608 39.024C35.096 38.0853 34.84 37.0187 34.84 35.824V20.176C34.84 19.8133 34.9467 19.5147 35.16 19.28C35.3947 19.0453 35.6933 18.928 36.056 18.928C36.4187 18.928 36.7173 19.0453 36.952 19.28C37.1867 19.5147 37.304 19.8133 37.304 20.176V35.824C37.304 36.912 37.624 37.808 38.264 38.512C38.904 39.1947 39.7253 39.536 40.728 39.536H41.592C41.9333 39.536 42.2107 39.6533 42.424 39.888C42.6373 40.1227 42.744 40.4213 42.744 40.784C42.744 41.1467 42.616 41.4453 42.36 41.68C42.104 41.8933 41.784 42 41.4 42H40.728ZM32.76 27.28C32.44 27.28 32.1733 27.184 31.96 26.992C31.7467 26.7787 31.64 26.5227 31.64 26.224C31.64 25.904 31.7467 25.648 31.96 25.456C32.1733 25.2427 32.44 25.136 32.76 25.136H40.92C41.24 25.136 41.5067 25.2427 41.72 25.456C41.9333 25.648 42.04 25.904 42.04 26.224C42.04 26.5227 41.9333 26.7787 41.72 26.992C41.5067 27.184 41.24 27.28 40.92 27.28H32.76ZM48.483 42C48.0777 42 47.7363 41.8933 47.459 41.68C47.203 41.4453 47.075 41.136 47.075 40.752V18.256C47.075 17.8933 47.1923 17.5947 47.427 17.36C47.6617 17.1253 47.9603 17.008 48.323 17.008H56.099C57.379 17.008 58.531 17.2853 59.555 17.84C60.6003 18.3733 61.4217 19.1093 62.019 20.048C62.6377 20.9867 62.947 22.0747 62.947 23.312C62.947 24.464 62.6377 25.488 62.019 26.384C61.4003 27.28 60.5897 27.9627 59.587 28.432C61.0163 28.816 62.1683 29.5413 63.043 30.608C63.9177 31.6533 64.355 32.9867 64.355 34.608C64.355 36.0587 64.0243 37.3387 63.363 38.448C62.7017 39.5573 61.7843 40.432 60.611 41.072C59.459 41.6907 58.1363 42 56.643 42H48.483ZM49.571 39.6H56.643C57.667 39.6 58.5737 39.3973 59.363 38.992C60.1523 38.5867 60.771 38.0107 61.219 37.264C61.667 36.5173 61.891 35.632 61.891 34.608C61.891 33.648 61.667 32.816 61.219 32.112C60.771 31.3867 60.1523 30.832 59.363 30.448C58.5737 30.0427 57.667 29.84 56.643 29.84H49.571V39.6ZM49.571 27.44H56.099C57.379 27.44 58.435 27.0773 59.267 26.352C60.099 25.6267 60.515 24.6133 60.515 23.312C60.515 22.032 60.099 21.0613 59.267 20.4C58.435 19.7387 57.379 19.408 56.099 19.408H49.571V27.44ZM76.717 42.16C75.0743 42.16 73.6023 41.776 72.301 41.008C70.9997 40.2187 69.965 39.152 69.197 37.808C68.4503 36.464 68.077 34.9493 68.077 33.264C68.077 31.5573 68.461 30.032 69.229 28.688C70.0183 27.344 71.085 26.288 72.429 25.52C73.773 24.7307 75.2877 24.336 76.973 24.336C78.6583 24.336 80.1623 24.7307 81.485 25.52C82.829 26.288 83.885 27.344 84.653 28.688C85.4423 30.032 85.8477 31.5573 85.869 33.264L84.877 34.032C84.877 35.568 84.5143 36.9547 83.789 38.192C83.085 39.408 82.1143 40.3787 80.877 41.104C79.661 41.808 78.2743 42.16 76.717 42.16ZM76.973 39.92C78.2103 39.92 79.309 39.632 80.269 39.056C81.2503 38.48 82.0183 37.6907 82.573 36.688C83.149 35.664 83.437 34.5227 83.437 33.264C83.437 31.984 83.149 30.8427 82.573 29.84C82.0183 28.8373 81.2503 28.048 80.269 27.472C79.309 26.8747 78.2103 26.576 76.973 26.576C75.757 26.576 74.6583 26.8747 73.677 27.472C72.6957 28.048 71.917 28.8373 71.341 29.84C70.765 30.8427 70.477 31.984 70.477 33.264C70.477 34.5227 70.765 35.664 71.341 36.688C71.917 37.6907 72.6957 38.48 73.677 39.056C74.6583 39.632 75.757 39.92 76.973 39.92ZM84.621 42C84.2583 42 83.9597 41.8933 83.725 41.68C83.4903 41.4453 83.373 41.1467 83.373 40.784V35.312L83.981 32.784L85.869 33.264V40.784C85.869 41.1467 85.7517 41.4453 85.517 41.68C85.2823 41.8933 84.9837 42 84.621 42ZM96.7733 42.16C95.5146 42.16 94.2666 41.9467 93.0293 41.52C91.7919 41.0933 90.7893 40.4533 90.0213 39.6C89.7866 39.344 89.6906 39.056 89.7333 38.736C89.7759 38.416 89.9359 38.1387 90.2133 37.904C90.5119 37.6907 90.8213 37.6053 91.1413 37.648C91.4613 37.6907 91.7279 37.8293 91.9413 38.064C92.4533 38.6613 93.1253 39.12 93.9573 39.44C94.8106 39.76 95.7493 39.92 96.7733 39.92C98.3519 39.92 99.4933 39.6533 100.197 39.12C100.901 38.5653 101.264 37.904 101.285 37.136C101.285 36.368 100.923 35.7387 100.197 35.248C99.4719 34.736 98.2773 34.3413 96.6133 34.064C94.4586 33.7227 92.8799 33.1253 91.8773 32.272C90.8746 31.4187 90.3733 30.4053 90.3733 29.232C90.3733 28.144 90.6613 27.2373 91.2373 26.512C91.8133 25.7867 92.5813 25.2427 93.5413 24.88C94.5013 24.5173 95.5573 24.336 96.7093 24.336C98.1386 24.336 99.3653 24.5813 100.389 25.072C101.435 25.5627 102.277 26.224 102.917 27.056C103.131 27.3333 103.216 27.6213 103.173 27.92C103.131 28.2187 102.96 28.464 102.661 28.656C102.405 28.8053 102.107 28.8587 101.765 28.816C101.445 28.752 101.168 28.592 100.933 28.336C100.4 27.7173 99.7813 27.2693 99.0773 26.992C98.3733 26.6933 97.5626 26.544 96.6453 26.544C95.4719 26.544 94.5333 26.7893 93.8293 27.28C93.1253 27.7493 92.7733 28.3467 92.7733 29.072C92.7733 29.5627 92.9013 29.9893 93.1573 30.352C93.4346 30.7147 93.8933 31.0347 94.5333 31.312C95.1946 31.5893 96.1119 31.824 97.2853 32.016C98.8853 32.272 100.144 32.656 101.061 33.168C102 33.6587 102.661 34.2453 103.045 34.928C103.451 35.5893 103.653 36.3147 103.653 37.104C103.653 38.1067 103.355 38.992 102.757 39.76C102.181 40.5067 101.371 41.0933 100.325 41.52C99.3013 41.9467 98.1173 42.16 96.7733 42.16ZM115.847 42.16C114.119 42.16 112.583 41.7867 111.239 41.04C109.917 40.272 108.871 39.216 108.103 37.872C107.357 36.528 106.983 34.992 106.983 33.264C106.983 31.5147 107.335 29.9787 108.039 28.656C108.765 27.312 109.757 26.256 111.015 25.488C112.274 24.72 113.725 24.336 115.367 24.336C116.989 24.336 118.397 24.7093 119.591 25.456C120.807 26.1813 121.746 27.1947 122.407 28.496C123.069 29.7973 123.399 31.28 123.399 32.944C123.399 33.2853 123.293 33.5627 123.079 33.776C122.866 33.968 122.589 34.064 122.247 34.064H108.647V32.016H122.503L121.127 33.008C121.149 31.7707 120.925 30.6613 120.455 29.68C119.986 28.6987 119.314 27.9307 118.439 27.376C117.586 26.8213 116.562 26.544 115.367 26.544C114.151 26.544 113.085 26.832 112.167 27.408C111.25 27.984 110.535 28.784 110.023 29.808C109.533 30.8107 109.287 31.9627 109.287 33.264C109.287 34.5653 109.565 35.7173 110.119 36.72C110.695 37.7227 111.474 38.512 112.455 39.088C113.437 39.664 114.567 39.952 115.847 39.952C116.615 39.952 117.383 39.824 118.151 39.568C118.941 39.2907 119.57 38.9493 120.039 38.544C120.274 38.352 120.541 38.256 120.839 38.256C121.138 38.2347 121.394 38.3093 121.607 38.48C121.885 38.736 122.023 39.0133 122.023 39.312C122.045 39.6107 121.927 39.8667 121.671 40.08C120.967 40.6773 120.071 41.1787 118.983 41.584C117.895 41.968 116.85 42.16 115.847 42.16Z" fill="white"/>
<path d="M19.9805 7.39752C20.0766 7.39314 20.0766 7.39314 20.1746 7.38867C21.1849 7.54422 22.5091 8.83227 23.125 9.60944C23.4171 10.0862 23.5998 10.557 23.75 11.0938C23.826 11.0942 23.826 11.0942 23.9035 11.0947C24.4321 11.0979 24.9606 11.1034 25.4891 11.11C25.6861 11.1122 25.8832 11.1139 26.0803 11.115C26.3641 11.1167 26.6478 11.1203 26.9315 11.1243C27.0192 11.1244 27.107 11.1245 27.1974 11.1246C27.7752 11.1354 28.1294 11.2122 28.5709 11.6022C29.1996 12.5219 29.0506 14.1091 28.8802 15.1613C28.7449 15.8697 28.7449 15.8697 28.5938 16.1719C28.6727 16.1655 28.7517 16.159 28.833 16.1524C29.2473 16.1787 29.5151 16.3038 29.797 16.5992C30.1712 17.1156 30.1337 17.6629 30.1273 18.2776C30.1274 18.3921 30.1275 18.5066 30.1279 18.6211C30.1281 18.8609 30.1269 19.1007 30.1248 19.3405C30.1222 19.6431 30.1226 19.9456 30.124 20.2482C30.1363 23.4875 29.3445 26.1732 27.0313 28.5157C25.8502 29.6985 24.4484 30.4839 22.8565 30.9717C22.7623 31.0007 22.7623 31.0007 22.6661 31.0303C22.2204 31.1589 21.7907 31.2144 21.3282 31.2501C21.3539 31.7399 21.3797 32.2297 21.4063 32.7344C21.5199 32.6208 21.5199 32.6208 21.6358 32.5049C23.0031 31.3121 24.7284 31.0016 26.4844 31.0938C26.8144 31.1382 27.1096 31.2141 27.4219 31.3282C27.4992 31.3548 27.5764 31.3814 27.656 31.4088C28.2487 31.6322 28.7256 31.9502 29.2188 32.3438C29.3001 32.4057 29.3001 32.4057 29.383 32.4689C29.7553 32.7652 30.026 33.0635 30.1105 33.5432C30.1633 34.4412 29.5469 35.0679 28.9844 35.7032C27.9796 36.8241 26.5925 37.7843 25.0504 37.9051C23.6665 37.9779 22.501 37.7351 21.3282 36.9532C21.3282 37.1079 21.3282 37.2626 21.3282 37.4219C21.4087 37.4268 21.4893 37.4316 21.5723 37.4366C22.0124 37.5289 22.2362 37.7364 22.4903 38.1006C22.6254 38.4986 22.6636 38.8987 22.5214 39.3015C22.3608 39.6052 22.1675 39.8232 21.875 40.0001C21.6933 40.0299 21.511 40.0563 21.3282 40.0782C21.3298 40.1227 21.3314 40.1671 21.3331 40.2129C21.3397 40.417 21.3437 40.6211 21.3477 40.8253C21.3503 40.8952 21.3529 40.9651 21.3556 41.0372C21.3627 41.5191 21.2976 41.7937 21.0157 42.1876C20.6346 42.5407 20.3222 42.6114 19.8154 42.6047C19.4793 42.5614 19.224 42.4256 18.9844 42.1876C18.6999 41.7671 18.6269 41.4785 18.6364 40.9762C18.6364 40.9121 18.6363 40.848 18.6363 40.782C18.6365 40.5719 18.6389 40.3618 18.6414 40.1517C18.642 40.0054 18.6424 39.859 18.6427 39.7127C18.6439 39.3288 18.647 38.9449 18.6505 38.561C18.6537 38.1688 18.6551 37.7765 18.6566 37.3842C18.66 36.6155 18.6653 35.8469 18.6719 35.0782C18.5996 35.0679 18.5273 35.0576 18.4528 35.0471C18.0322 34.9679 17.8051 34.7806 17.5489 34.4434C17.3698 34.0928 17.3607 33.7437 17.4219 33.3594C17.5553 32.9841 17.7845 32.706 18.125 32.5001C18.3055 32.4743 18.486 32.4485 18.6719 32.4219C18.6719 32.0352 18.6719 31.6485 18.6719 31.2501C18.5585 31.2413 18.4451 31.2325 18.3283 31.2235C17.9157 31.1818 17.5346 31.0928 17.1387 30.9717C17.0713 30.9512 17.0038 30.9306 16.9344 30.9094C14.4139 30.1076 12.2555 28.2652 11.0181 25.9397C10.3843 24.7049 9.91982 23.2774 9.90808 21.8809C9.90731 21.8043 9.90731 21.8043 9.90652 21.7263C9.905 21.5594 9.90408 21.3925 9.90329 21.2256C9.90297 21.1682 9.90266 21.1108 9.90233 21.0516C9.90071 20.7481 9.89958 20.4445 9.89885 20.141C9.89798 19.8286 9.89529 19.5163 9.89219 19.204C9.89015 18.9626 9.8895 18.7212 9.88922 18.4797C9.88884 18.3646 9.88793 18.2495 9.88648 18.1344C9.87325 17.0182 9.87325 17.0182 10.2344 16.5626C10.6197 16.2055 10.8883 16.1622 11.4063 16.1719C11.3912 16.1309 11.3761 16.09 11.3605 16.0477C11.0012 14.9787 10.9574 13.8377 11.0743 12.7247C11.0791 12.6723 11.0839 12.62 11.0888 12.5661C11.1423 12.1167 11.2667 11.7591 11.6056 11.4531C12.0826 11.1199 12.5077 11.1207 13.0762 11.1338C13.1672 11.1343 13.2582 11.1349 13.352 11.1355C13.641 11.1376 13.9298 11.1425 14.2188 11.1475C14.4154 11.1495 14.6121 11.1513 14.8087 11.1529C15.2892 11.1572 15.7696 11.1637 16.25 11.1719C16.2644 11.1091 16.2788 11.0462 16.2936 10.9814C16.3133 10.8982 16.3331 10.8149 16.3535 10.7291C16.3727 10.6469 16.3919 10.5647 16.4117 10.48C16.6619 9.63518 17.282 8.97137 17.9883 8.47662C18.0394 8.44008 18.0905 8.40353 18.1431 8.36588C18.2453 8.29295 18.3477 8.22032 18.4504 8.14803C18.5793 8.05715 18.7074 7.96514 18.8355 7.87299C19.2228 7.59616 19.4934 7.41189 19.9805 7.39752ZM19.9219 10.3907C19.8092 10.4748 19.697 10.5596 19.585 10.6446C19.5225 10.6917 19.4599 10.7389 19.3955 10.7874C19.1653 10.983 19.0095 11.1343 18.9444 11.4344C18.9399 11.496 18.9354 11.5577 18.9307 11.6212C18.9256 11.6836 18.9204 11.746 18.9151 11.8104C18.9108 11.8811 18.9108 11.8811 18.9063 11.9532C19.0428 12.0544 19.1796 12.1552 19.3164 12.2559C19.3926 12.3121 19.4687 12.3683 19.5472 12.4262C19.7218 12.5477 19.8851 12.6471 20.0782 12.7344C20.1253 12.692 20.1724 12.6496 20.221 12.606C20.2834 12.5501 20.3459 12.4942 20.4102 12.4366C20.4718 12.3813 20.5335 12.326 20.597 12.269C20.758 12.1296 20.9216 12.0002 21.0938 11.8751C20.9624 11.3667 20.7891 10.9776 20.3907 10.6251C20.142 10.4743 20.142 10.4743 19.9219 10.3907ZM13.75 13.8282C13.7446 14.2755 13.7751 14.6553 13.8868 15.088C13.899 15.1408 13.9113 15.1937 13.924 15.2482C14.0135 15.6042 14.1233 15.8951 14.375 16.1719C14.6411 16.2313 14.6411 16.2313 14.9414 16.2159C16.3108 16.2395 17.4634 16.8153 18.4482 17.7561C18.5703 17.8995 18.5703 17.8995 18.6719 17.8907C18.6788 17.5815 18.6829 17.2722 18.6866 16.963C18.6885 16.8763 18.6905 16.7897 18.6925 16.7005C18.6991 15.9572 18.6105 15.278 18.125 14.6876C17.5782 14.1335 17.0504 13.8425 16.26 13.8193C16.1431 13.8193 16.0261 13.8198 15.9092 13.8206C15.8163 13.8207 15.8163 13.8207 15.7217 13.8209C15.5251 13.8213 15.3285 13.8223 15.1319 13.8233C14.9982 13.8237 14.8644 13.8241 14.7307 13.8244C14.4038 13.8252 14.0769 13.8266 13.75 13.8282ZM21.8994 14.6729C21.4703 15.1873 21.3663 15.6749 21.3282 16.3282C21.3875 16.3155 21.4469 16.3027 21.508 16.2896C21.8962 16.2365 22.2778 16.241 22.6691 16.2418C22.8406 16.2408 23.0121 16.2396 23.1836 16.2383C23.453 16.2365 23.7223 16.2354 23.9917 16.2364C24.2524 16.2371 24.5129 16.2348 24.7736 16.2321C24.8542 16.233 24.9349 16.234 25.018 16.235C25.2304 16.2313 25.4189 16.2235 25.625 16.1719C25.8408 15.9389 25.9599 15.7127 26.0364 15.4059C26.056 15.3278 26.056 15.3278 26.0761 15.2482C26.0945 15.1689 26.0945 15.1689 26.1133 15.088C26.1268 15.0357 26.1403 14.9834 26.1542 14.9296C26.2454 14.554 26.2548 14.2146 26.25 13.8282C25.8638 13.8223 25.4776 13.8181 25.0913 13.8153C24.9602 13.8141 24.8292 13.8125 24.6981 13.8105C23.6032 13.7939 22.6925 13.817 21.8994 14.6729ZM12.5782 18.8282C12.5742 19.2073 12.5714 19.5863 12.5696 19.9654C12.5688 20.0938 12.5677 20.2223 12.5664 20.3507C12.5445 22.46 12.9327 24.4764 14.375 26.0938C14.4663 26.2012 14.5574 26.3086 14.6485 26.4161C14.7129 26.4902 14.7774 26.5643 14.8438 26.6407C14.9647 26.4207 15.0274 26.2327 15.0644 25.9849C15.0752 25.9176 15.0859 25.8503 15.097 25.7809C15.1085 25.7085 15.12 25.6362 15.1319 25.5616C15.4339 23.8048 16.0118 22.1294 16.9489 20.6092C17.0545 20.3891 17.0545 20.3891 16.977 20.1429C16.7119 19.5683 16.273 19.2401 15.7032 18.9844C15.057 18.7878 14.4132 18.8103 13.7452 18.8184C13.6317 18.8192 13.5182 18.8199 13.4047 18.8206C13.1292 18.8223 12.8537 18.825 12.5782 18.8282ZM20.2344 20.3126C18.4154 22.5338 17.5108 25.4339 17.5782 28.2813C18.5826 28.5438 18.5826 28.5438 19.6094 28.6719C19.6669 28.6751 19.7244 28.6782 19.7837 28.6814C21.6147 28.7322 23.4737 28.0912 24.8438 26.8751C24.8962 26.8338 24.9485 26.7925 25.0025 26.7499C26.4307 25.5994 27.1689 23.7466 27.3923 21.9729C27.4531 21.3708 27.4381 20.7654 27.4317 20.1612C27.4309 20.031 27.4302 19.9009 27.4295 19.7707C27.4278 19.4565 27.4252 19.1424 27.4219 18.8282C26.7719 18.8227 26.122 18.8186 25.472 18.816C25.1702 18.8148 24.8683 18.8132 24.5664 18.8105C24.2747 18.8079 23.9829 18.8066 23.6911 18.8059C23.5803 18.8055 23.4694 18.8047 23.3586 18.8034C21.9197 18.7875 21.1848 19.2523 20.2344 20.3126ZM23.125 34.7657C23.125 34.8172 23.125 34.8688 23.125 34.9219C23.956 35.2826 24.6896 35.3038 25.5469 35.0001C26.0097 34.7964 26.4538 34.5168 26.7969 34.1407C26.7969 34.0891 26.7969 34.0376 26.7969 33.9844C25.484 33.579 24.1446 33.7729 23.125 34.7657Z" fill="#E11D48"/>
<path d="M25.5494 21.2201C25.9353 21.4114 26.17 21.7129 26.3282 22.1093C26.552 22.9953 25.8841 23.9978 25.4542 24.7412C24.6195 26.1191 23.4114 27.0893 21.8662 27.5491C21.36 27.6487 20.9144 27.6524 20.4688 27.373C20.19 27.1585 20.0217 26.9864 19.9219 26.6406C19.8524 26.1034 19.9116 25.7487 20.2344 25.3125C20.5154 25.0535 20.7502 24.9442 21.1182 24.8486C21.9481 24.6085 22.6115 24.145 23.0475 23.377C23.1277 23.2208 23.2051 23.0635 23.2813 22.9052C23.3334 22.7989 23.3855 22.6926 23.4375 22.5863C23.5177 22.4222 23.5975 22.2578 23.676 22.0929C23.7029 22.0374 23.7297 21.9819 23.7574 21.9247C23.7813 21.8746 23.8052 21.8246 23.8299 21.773C24.1795 21.1676 24.9229 21.0297 25.5494 21.2201Z" fill="#E11D48"/>
</svg>
