<svg width="40" height="40" viewBox="0 0 40 40" fill="none" xmlns="http://www.w3.org/2000/svg">
<path d="M19.9805 2.39752C20.0766 2.39314 20.0766 2.39314 20.1746 2.38867C21.1849 2.54422 22.5091 3.83227 23.125 4.60944C23.4171 5.08617 23.5998 5.55701 23.75 6.09381C23.826 6.09424 23.826 6.09424 23.9035 6.09467C24.4321 6.09795 24.9606 6.10337 25.4891 6.11002C25.6861 6.11223 25.8832 6.11388 26.0803 6.11498C26.3641 6.11666 26.6478 6.12031 26.9315 6.12433C27.0192 6.12442 27.107 6.12452 27.1974 6.12462C27.7752 6.13536 28.1294 6.21223 28.5709 6.60223C29.1996 7.52189 29.0506 9.10914 28.8802 10.1613C28.7449 10.8697 28.7449 10.8697 28.5938 11.1719C28.6727 11.1655 28.7517 11.159 28.833 11.1524C29.2473 11.1787 29.5151 11.3038 29.797 11.5992C30.1712 12.1156 30.1337 12.6629 30.1273 13.2776C30.1274 13.3921 30.1275 13.5066 30.1279 13.6211C30.1281 13.8609 30.1269 14.1007 30.1248 14.3405C30.1222 14.6431 30.1226 14.9456 30.124 15.2482C30.1363 18.4875 29.3445 21.1732 27.0313 23.5157C25.8502 24.6985 24.4484 25.4839 22.8565 25.9717C22.7623 26.0007 22.7623 26.0007 22.6661 26.0303C22.2204 26.1589 21.7907 26.2144 21.3282 26.2501C21.3539 26.7399 21.3797 27.2297 21.4063 27.7344C21.5199 27.6208 21.5199 27.6208 21.6358 27.5049C23.0031 26.3121 24.7284 26.0016 26.4844 26.0938C26.8144 26.1382 27.1096 26.2141 27.4219 26.3282C27.4992 26.3548 27.5764 26.3814 27.656 26.4088C28.2487 26.6322 28.7256 26.9502 29.2188 27.3438C29.3001 27.4057 29.3001 27.4057 29.383 27.4689C29.7553 27.7652 30.026 28.0635 30.1105 28.5432C30.1633 29.4412 29.5469 30.0679 28.9844 30.7032C27.9796 31.8241 26.5925 32.7843 25.0504 32.9051C23.6665 32.9779 22.501 32.7351 21.3282 31.9532C21.3282 32.1079 21.3282 32.2626 21.3282 32.4219C21.4087 32.4268 21.4893 32.4316 21.5723 32.4366C22.0124 32.5289 22.2362 32.7364 22.4903 33.1006C22.6254 33.4986 22.6636 33.8987 22.5214 34.3015C22.3608 34.6052 22.1675 34.8232 21.875 35.0001C21.6933 35.0299 21.511 35.0563 21.3282 35.0782C21.3298 35.1227 21.3314 35.1671 21.3331 35.2129C21.3397 35.417 21.3437 35.6211 21.3477 35.8253C21.3503 35.8952 21.3529 35.9651 21.3556 36.0372C21.3627 36.5191 21.2976 36.7937 21.0157 37.1876C20.6346 37.5407 20.3222 37.6114 19.8154 37.6047C19.4793 37.5614 19.224 37.4256 18.9844 37.1876C18.6999 36.7671 18.6269 36.4785 18.6364 35.9762C18.6364 35.9121 18.6363 35.848 18.6363 35.782C18.6365 35.5719 18.6389 35.3618 18.6414 35.1517C18.642 35.0054 18.6424 34.859 18.6427 34.7127C18.6439 34.3288 18.647 33.9449 18.6505 33.561C18.6537 33.1688 18.6551 32.7765 18.6566 32.3842C18.66 31.6155 18.6653 30.8469 18.6719 30.0782C18.5996 30.0679 18.5273 30.0576 18.4528 30.0471C18.0322 29.9679 17.8051 29.7806 17.5489 29.4434C17.3698 29.0928 17.3607 28.7437 17.4219 28.3594C17.5553 27.9841 17.7845 27.706 18.125 27.5001C18.3055 27.4743 18.486 27.4485 18.6719 27.4219C18.6719 27.0352 18.6719 26.6485 18.6719 26.2501C18.5585 26.2413 18.4451 26.2325 18.3283 26.2235C17.9157 26.1818 17.5346 26.0928 17.1387 25.9717C17.0713 25.9512 17.0038 25.9306 16.9344 25.9094C14.4139 25.1076 12.2555 23.2652 11.0181 20.9397C10.3843 19.7049 9.91982 18.2774 9.90808 16.8809C9.90731 16.8043 9.90731 16.8043 9.90652 16.7263C9.905 16.5594 9.90408 16.3925 9.90329 16.2256C9.90297 16.1682 9.90266 16.1108 9.90233 16.0516C9.90071 15.7481 9.89958 15.4445 9.89885 15.141C9.89798 14.8286 9.89529 14.5163 9.89219 14.204C9.89015 13.9626 9.8895 13.7212 9.88922 13.4797C9.88884 13.3646 9.88793 13.2495 9.88648 13.1344C9.87325 12.0182 9.87325 12.0182 10.2344 11.5626C10.6197 11.2055 10.8883 11.1622 11.4063 11.1719C11.3912 11.1309 11.3761 11.09 11.3605 11.0477C11.0012 9.97865 10.9574 8.83766 11.0743 7.72467C11.0791 7.67235 11.0839 7.62002 11.0888 7.56611C11.1423 7.11669 11.2667 6.75913 11.6056 6.45312C12.0826 6.11987 12.5077 6.12067 13.0762 6.13379C13.1672 6.13434 13.2582 6.13489 13.352 6.13546C13.641 6.13764 13.9298 6.14254 14.2188 6.14752C14.4154 6.14948 14.6121 6.15126 14.8087 6.15286C15.2892 6.15716 15.7696 6.16368 16.25 6.17194C16.2644 6.10908 16.2788 6.04621 16.2936 5.98145C16.3133 5.89818 16.3331 5.81492 16.3535 5.72913C16.3727 5.64693 16.3919 5.56473 16.4117 5.48005C16.6619 4.63518 17.282 3.97137 17.9883 3.47662C18.0394 3.44008 18.0905 3.40353 18.1431 3.36588C18.2453 3.29295 18.3477 3.22032 18.4504 3.14803C18.5793 3.05715 18.7074 2.96514 18.8355 2.87299C19.2228 2.59616 19.4934 2.41189 19.9805 2.39752ZM19.9219 5.39069C19.8092 5.4748 19.697 5.55956 19.585 5.64459C19.5225 5.69172 19.4599 5.73885 19.3955 5.78741C19.1653 5.98299 19.0095 6.13429 18.9444 6.43439C18.9399 6.49602 18.9354 6.55765 18.9307 6.62115C18.9256 6.68359 18.9204 6.74603 18.9151 6.81036C18.9108 6.88106 18.9108 6.88106 18.9063 6.95319C19.0428 7.05439 19.1796 7.15523 19.3164 7.25592C19.3926 7.31212 19.4687 7.36831 19.5472 7.42621C19.7218 7.5477 19.8851 7.6471 20.0782 7.73444C20.1253 7.69204 20.1724 7.64964 20.221 7.60596C20.2834 7.55006 20.3459 7.49417 20.4102 7.43658C20.4718 7.3813 20.5335 7.32601 20.597 7.26904C20.758 7.12962 20.9216 7.00025 21.0938 6.87506C20.9624 6.36668 20.7891 5.97764 20.3907 5.62506C20.142 5.47435 20.142 5.47435 19.9219 5.39069ZM13.75 8.82819C13.7446 9.27554 13.7751 9.65532 13.8868 10.088C13.899 10.1408 13.9113 10.1937 13.924 10.2482C14.0135 10.6042 14.1233 10.8951 14.375 11.1719C14.6411 11.2313 14.6411 11.2313 14.9414 11.2159C16.3108 11.2395 17.4634 11.8153 18.4482 12.7561C18.5703 12.8995 18.5703 12.8995 18.6719 12.8907C18.6788 12.5815 18.6829 12.2722 18.6866 11.963C18.6885 11.8763 18.6905 11.7897 18.6925 11.7005C18.6991 10.9572 18.6105 10.278 18.125 9.68756C17.5782 9.13351 17.0504 8.84249 16.26 8.81932C16.1431 8.81933 16.0261 8.81976 15.9092 8.82056C15.8163 8.82072 15.8163 8.82072 15.7217 8.82089C15.5251 8.82133 15.3285 8.82231 15.1319 8.8233C14.9982 8.8237 14.8644 8.82405 14.7307 8.82437C14.4038 8.82523 14.0769 8.82658 13.75 8.82819ZM21.8994 9.67291C21.4703 10.1873 21.3663 10.6749 21.3282 11.3282C21.3875 11.3155 21.4469 11.3027 21.508 11.2896C21.8962 11.2365 22.2778 11.241 22.6691 11.2418C22.8406 11.2408 23.0121 11.2396 23.1836 11.2383C23.453 11.2365 23.7223 11.2354 23.9917 11.2364C24.2524 11.2371 24.5129 11.2348 24.7736 11.2321C24.8542 11.233 24.9349 11.234 25.018 11.235C25.2304 11.2313 25.4189 11.2235 25.625 11.1719C25.8408 10.9389 25.9599 10.7127 26.0364 10.4059C26.056 10.3278 26.056 10.3278 26.0761 10.2482C26.0945 10.1689 26.0945 10.1689 26.1133 10.088C26.1268 10.0357 26.1403 9.98342 26.1542 9.92957C26.2454 9.55402 26.2548 9.21461 26.25 8.82819C25.8638 8.82234 25.4776 8.81811 25.0913 8.81531C24.9602 8.81414 24.8292 8.81255 24.6981 8.8105C23.6032 8.79388 22.6925 8.81704 21.8994 9.67291ZM12.5782 13.8282C12.5742 14.2073 12.5714 14.5863 12.5696 14.9654C12.5688 15.0938 12.5677 15.2223 12.5664 15.3507C12.5445 17.46 12.9327 19.4764 14.375 21.0938C14.4663 21.2012 14.5574 21.3086 14.6485 21.4161C14.7129 21.4902 14.7774 21.5643 14.8438 21.6407C14.9647 21.4207 15.0274 21.2327 15.0644 20.9849C15.0752 20.9176 15.0859 20.8503 15.097 20.7809C15.1085 20.7085 15.12 20.6362 15.1319 20.5616C15.4339 18.8048 16.0118 17.1294 16.9489 15.6092C17.0545 15.3891 17.0545 15.3891 16.977 15.1429C16.7119 14.5683 16.273 14.2401 15.7032 13.9844C15.057 13.7878 14.4132 13.8103 13.7452 13.8184C13.6317 13.8192 13.5182 13.8199 13.4047 13.8206C13.1292 13.8223 12.8537 13.825 12.5782 13.8282ZM20.2344 15.3126C18.4154 17.5338 17.5108 20.4339 17.5782 23.2813C18.5826 23.5438 18.5826 23.5438 19.6094 23.6719C19.6669 23.6751 19.7244 23.6782 19.7837 23.6814C21.6147 23.7322 23.4737 23.0912 24.8438 21.8751C24.8962 21.8338 24.9485 21.7925 25.0025 21.7499C26.4307 20.5994 27.1689 18.7466 27.3923 16.9729C27.4531 16.3708 27.4381 15.7654 27.4317 15.1612C27.4309 15.031 27.4302 14.9009 27.4295 14.7707C27.4278 14.4565 27.4252 14.1424 27.4219 13.8282C26.7719 13.8227 26.122 13.8186 25.472 13.816C25.1702 13.8148 24.8683 13.8132 24.5664 13.8105C24.2747 13.8079 23.9829 13.8066 23.6911 13.8059C23.5803 13.8055 23.4694 13.8047 23.3586 13.8034C21.9197 13.7875 21.1848 14.2523 20.2344 15.3126ZM23.125 29.7657C23.125 29.8172 23.125 29.8688 23.125 29.9219C23.956 30.2826 24.6896 30.3038 25.5469 30.0001C26.0097 29.7964 26.4538 29.5168 26.7969 29.1407C26.7969 29.0891 26.7969 29.0376 26.7969 28.9844C25.484 28.579 24.1446 28.7729 23.125 29.7657Z" fill="#E11D48"/>
<path d="M25.5494 16.2201C25.9353 16.4114 26.17 16.7129 26.3282 17.1093C26.552 17.9953 25.8841 18.9978 25.4542 19.7412C24.6195 21.1191 23.4114 22.0893 21.8662 22.5491C21.36 22.6487 20.9144 22.6524 20.4688 22.373C20.19 22.1585 20.0217 21.9864 19.9219 21.6406C19.8524 21.1034 19.9116 20.7487 20.2344 20.3125C20.5154 20.0535 20.7502 19.9442 21.1182 19.8486C21.9481 19.6085 22.6115 19.145 23.0475 18.377C23.1277 18.2208 23.2051 18.0635 23.2813 17.9052C23.3334 17.7989 23.3855 17.6926 23.4375 17.5863C23.5177 17.4222 23.5975 17.2578 23.676 17.0929C23.7029 17.0374 23.7297 16.9819 23.7574 16.9247C23.7813 16.8746 23.8052 16.8246 23.8299 16.773C24.1795 16.1676 24.9229 16.0297 25.5494 16.2201Z" fill="#E11D48"/>
</svg>
